<svg xmlns="http://www.w3.org/2000/svg" version="1.1" xmlns:xlink="http://www.w3.org/1999/xlink" xmlns:svgjs="http://svgjs.dev/svgjs" id="BgenPttrnSvgRootPreview" width="100%" height="100%"><defs><pattern x="0" y="0" width="1" height="1" patternUnits="userSpaceOnUse" id="BgenPttrnLayer1"><g id="PatternRootContent1"><g id="BgenPttrnLayer1background"><rect width="1" height="1" id="BgenPttrnBackground1" class="color_1 fill_color_1" fill="#e1eff5"></rect></g></g></pattern><pattern x="0" y="0" width="48" height="48" patternUnits="userSpaceOnUse" id="BgenPttrnLayer2" patternTransform="matrix(0.6,0,0,0.6,0,0)"><g id="PatternRootContent2"><g id="BgenPttrnLayer2Element1"><use xlink:href="#BgenPttrnElement1" x="-48" y="-48" transform="translate(-29, -29) scale(1) translate(29, 29) rotate(45, -24, -24)"></use><use xlink:href="#BgenPttrnElement1" x="0" y="-48" transform="translate(19, -29) scale(1) translate(-19, 29) rotate(45, 24, -24)"></use><use xlink:href="#BgenPttrnElement1" x="0" y="0" transform="translate(19, 19) scale(1) translate(-19, -19) rotate(45, 24, 24)"></use><use xlink:href="#BgenPttrnElement1" x="-48" y="0" transform="translate(-29, 19) scale(1) translate(29, -19) rotate(45, -24, 24)"></use><use xlink:href="#BgenPttrnElement1" x="48" y="0" transform="translate(67, 19) scale(1) translate(-67, -19) rotate(45, 72, 24)"></use><use xlink:href="#BgenPttrnElement1" x="0" y="48" transform="translate(19, 67) scale(1) translate(-19, -67) rotate(45, 24, 72)"></use><use xlink:href="#BgenPttrnElement1" x="0" y="48" transform="translate(19, 67) scale(1) translate(-19, -67) rotate(45, 24, 72)"></use></g></g></pattern><symbol id="BgenPttrnElement1"><path d="M24 4L9 40.59 10.41 42 24 36l13.59 6L39 40.59z" class="color_2 fill_color_2" fill="#d1daff"></path></symbol></defs><rect width="100%" height="100%" id="BgenPttrnRctLayer1" fill="url(&quot;#BgenPttrnLayer1&quot;)"></rect><rect width="100%" height="100%" id="BgenPttrnRctLayer2" fill="url(&quot;#BgenPttrnLayer2&quot;)"></rect></svg>